<!-- src/assets/logo.svg -->
<svg width="128" height="128" viewBox="0 0 128 128" fill="none" xmlns="http://www.w3.org/2000/svg">
  <rect width="128" height="128" fill="white"/>
  <!-- J + P symbol -->
  <path d="M36 36V92C36 101 45 101 45 92V65H65C65 65 70 65 70 60V36H60V56H45V36H36Z" fill="#1A1A1A"/>
  <path d="M78 36H90C96 36 100 40 100 45V83C100 89 96 93 90 93H78V82H88C89 82 90 81 90 79V49C90 47 89 46 88 46H78V36Z" fill="#1A1A1A"/>

  <!-- Pen icon tip -->
  <polygon points="62,100 66,112 70,100" fill="#4F46E5"/>

  <!-- Document sheet -->
  <rect x="80" y="70" width="28" height="36" rx="4" fill="#E0E7FF"/>
  <line x1="84" y1="76" x2="104" y2="76" stroke="#4F46E5" stroke-width="2"/>
  <line x1="84" y1="82" x2="104" y2="82" stroke="#4F46E5" stroke-width="2"/>
  <line x1="84" y1="88" x2="104" y2="88" stroke="#4F46E5" stroke-width="2"/>

  <!-- Camera circle (minimal) -->
  <circle cx="100" cy="44" r="6" fill="#4F46E5"/>
  <rect x="96" y="40" width="8" height="2" rx="1" fill="white"/>

  <!-- Branding text (optional) -->
  <!-- <text x="10" y="120" font-family="sans-serif" font-size="14" fill="#1A1A1A" font-weight="bold">JP Visual & Docs</text> -->
</svg>