<svg
  xmlns="http://www.w3.org/2000/svg"
  viewBox="0 0 448 512"
  width="64"
  height="64"
  role="img"
  aria-label="TikTok Icon"
>
  <!-- ตัวโน้ตหลัก -->
  <path
    fill="#000000"
    d="M448,209.9v125.1c0,97.2-78.8,176-176,176s-176-78.8-176-176S174.8,158.9,272,158.9
       c5.4,0,10.6,0.3,15.9,0.8V103.4c-5.2-.5-10.4-.7-15.9-.7c-122.6,0-222,99.4-222,222s99.4,222,222,222
       s222-99.4,222-222V209.9H448z"
  />
  <!-- เฉดสีชมพู -->
  <path
    fill="#EE1D52"
    d="M272,158.9c40.2,0,76.7,15.7,104.1,41.2v-59.5
       c-26.4-19.6-59.4-31.4-94.9-31.4c-5.4,0-10.6.2-15.9.7v56.7C261.4,166.3,266.6,158.9,272,158.9z"
  />
  <!-- เฉดสีฟ้า -->
  <path
    fill="#69C9D0"
    d="M376.1,200.1c-27.3-25.5-63.9-41.2-104.1-41.2
       c-5.4,0-10.6,0.3-15.9,0.8V247c6.3-1.1,12.8-1.7,19.5-1.7c53.7,0,97.4,43.7,97.4,97.4
       s-43.7,97.4-97.4,97.4s-97.4-43.7-97.4-97.4c0-14.6,3.3-28.5,9.1-41.1v-58.5
       c-39.1,23.3-65.5,66.2-65.5,114.2c0,73.4,59.5,132.9,132.9,132.9s132.9-59.5,132.9-132.9
       C408,256.9,397,224.6,376.1,200.1z"
  />
</svg>