<svg xmlns="http://www.w3.org/2000/svg" viewBox="0 0 448 512">
  <path fill="#E1306C" d="M224.1 141c-63.6 0-114.9 51.3-114.9 114.9s51.3 114.9 114.9 114.9 114.9-51.3 114.9-114.9-51.3-114.9-114.9-114.9zm0 189.6c-41.2 0-74.7-33.5-74.7-74.7S182.9 181.2 224.1 181.2s74.7 33.5 74.7 74.7-33.5 74.7-74.7 74.7zm146.4-194.3c0 14.9-12 26.9-26.9 26.9s-26.9-12-26.9-26.9 12-26.9 26.9-26.9 26.9 12 26.9 26.9zm76.1 27.2c-1.7-35.3-9.9-66.7-36.1-92.9C385.5 29.9 354.1 21.7 318.8 20c-35.3-1.7-141.3-1.7-176.6 0-35.3 1.7-66.7 9.9-92.9 36.1C23 92.1 14.8 123.5 13.1 158.8c-1.7 35.3-1.7 141.3 0 176.6 1.7 35.3 9.9 66.7 36.1 92.9 26.2 26.2 57.6 34.4 92.9 36.1 35.3 1.7 141.3 1.7 176.6 0 35.3-1.7 66.7-9.9 92.9-36.1 26.2-26.2 34.4-57.6 36.1-92.9 1.7-35.3 1.7-141.3 0-176.6zM398.8 388c-7.8 19.6-22.9 34.7-42.5 42.5-29.4 11.7-99.2 9-132.2 9s-102.7 2.6-132.2-9c-19.6-7.8-34.7-22.9-42.5-42.5-11.7-29.4-9-99.2-9-132.2s-2.6-102.7 9-132.2c7.8-19.6 22.9-34.7 42.5-42.5 29.4-11.7 99.2-9 132.2-9s102.7-2.6 132.2 9c19.6 7.8 34.7 22.9 42.5 42.5 11.7 29.4 9 99.2 9 132.2s2.6 102.7-9 132.2z"/>
</svg>